<?xml version="1.0" standalone="no"?><!DOCTYPE svg PUBLIC "-//W3C//DTD SVG 1.1//EN" "http://www.w3.org/Graphics/SVG/1.1/DTD/svg11.dtd"><svg t="1622612652151" class="icon" viewBox="0 0 1024 1024" version="1.1" xmlns="http://www.w3.org/2000/svg" p-id="5721" xmlns:xlink="http://www.w3.org/1999/xlink" width="200" height="200"><defs><style type="text/css"></style></defs><path d="M418.441232 1022.574927a27.363528 27.363528 0 0 1-26.108612-35.637459l55.301338-175.028737a27.363528 27.363528 0 0 1 45.453447-11.081537l115.920114 115.973288a27.374163 27.374163 0 0 1-10.432811 45.240749l-171.221452 59.044814a27.448607 27.448607 0 0 1-8.912024 1.488882zM486.238547 871.410845l-25.332267 80.186941 78.464091-27.044482z" p-id="5722" fill="#1296db"></path><path d="M589.69459 963.540748a27.427337 27.427337 0 0 1-19.355469-8.018694L454.355198 839.527496a27.352893 27.352893 0 0 1 0-38.710937l293.10773-293.118365a27.384798 27.384798 0 0 1 38.721572 0L902.168423 623.692752a27.374163 27.374163 0 0 1 0 38.710937L609.007519 955.522054a27.384798 27.384798 0 0 1-19.312929 8.018694z m-77.272986-143.368721l77.272986 77.272986L844.102017 643.04822l-77.28362-77.251716z" p-id="5723" fill="#1296db"></path><path d="M882.812954 670.422383a27.363528 27.363528 0 0 1-19.355468-8.018694L747.462928 546.409131a27.374163 27.374163 0 0 1 0-38.710937l59.767985-59.767985a84.132479 84.132479 0 0 1 118.834069 0l35.871426 35.860791a84.015495 84.015495 0 0 1 0 118.834069l-59.767985 59.767985a27.363528 27.363528 0 0 1-19.355469 8.029329z m-77.272986-143.368721l77.272986 77.272986 40.412517-40.412516a29.26717 29.26717 0 0 0 0-41.412195l-35.860791-35.860791a29.30971 29.30971 0 0 0-41.412195 0zM756.470665 1023.989365h-91.268478a27.374163 27.374163 0 0 1 0-54.748325h91.268478c53.599759 0 97.202738-44.666466 97.202738-99.616854v-96.447662a27.374163 27.374163 0 0 1 54.748325 0v96.405123c0 85.164062-68.169535 154.407719-151.951063 154.407718z" p-id="5724" fill="#1296db"></path><path d="M254.536572 1023.989365h-65.138596C105.616448 1023.989365 37.446913 954.745708 37.446913 869.624186v-478.569277a27.480511 27.480511 0 0 1 1.882373-9.996781L173.158525 39.816964A62.065118 62.065118 0 0 1 231.161122 0.02127H756.470665c83.781528 0 151.951063 69.243657 151.951063 154.354544v168.46702a27.374163 27.374163 0 0 1-54.748325 0V154.354544c0-54.918483-43.602979-99.606219-97.202738-99.606219H231.161122a7.657108 7.657108 0 0 0-7.029651 5.0622l-131.978772 336.381027v473.432634c0 54.929118 43.602979 99.616854 97.202738 99.616854h65.138596a27.374163 27.374163 0 0 1 0 54.748325z" p-id="5725" fill="#1296db"></path><path d="M724.28954 367.98787H265.809538a27.374163 27.374163 0 0 1 0-54.748326h458.480002a27.374163 27.374163 0 0 1 0 54.748326zM654.801281 487.577015H265.809538a27.374163 27.374163 0 0 1 0-54.748326H654.801281a27.374163 27.374163 0 1 1 0 54.748326zM550.590162 607.12362H265.809538a27.384798 27.384798 0 0 1 0-54.75896h284.780624a27.384798 27.384798 0 0 1 0 54.75896zM437.679717 726.659591H265.809538a27.374163 27.374163 0 1 1 0-54.748326h171.870179a27.374163 27.374163 0 1 1 0 54.748326zM251.239762 44.485673l124.045156 105.710636a18.759916 18.759916 0 0 1-0.989043 29.352249L89.781123 390.576339l131.808613-338.61435a18.759916 18.759916 0 0 1 29.650026-7.476316z" p-id="5726" fill="#1296db"></path></svg>