<?xml version="1.0" standalone="no"?><!DOCTYPE svg PUBLIC "-//W3C//DTD SVG 1.1//EN" "http://www.w3.org/Graphics/SVG/1.1/DTD/svg11.dtd"><svg t="1622612818342" class="icon" viewBox="0 0 1412 1024" version="1.1" xmlns="http://www.w3.org/2000/svg" p-id="7018" xmlns:xlink="http://www.w3.org/1999/xlink" width="275.78125" height="200"><defs><style type="text/css"></style></defs><path d="M1192.625146 441.068262s40.641789 56.452477-18.057469 83.547003c0 0-69.99974 53.70641-487.634898 120.544012 0 0-313.817189 35.515798-438.438695 91.801846 0 0-151.150176 63.242751-248.444156 176.87999l43.421142 55.270836s173.867637-203.042517 402.007541-237.17696c0 0 297.557145-57.284618 336.185152-70.349239 0 0 239.656742-53.257054 306.993629-81.400078 0 0 151.749317-47.248992 126.635288-102.519829-0.049928 0.016643-13.114549-32.986088-22.667534-36.597581z" fill="#1296db" p-id="7019"></path><path d="M1332.82434 427.421142s74.376804 45.218567 59.298401 101.521258c0 0 20.104538 69.35067-133.658562 156.775452 0 0-90.453777 54.272266-253.253933 108.544533 0 0-124.621506 34.167729-215.075283 80.401508 0 0-137.686127 55.47055-187.930828 149.336107H700.663113s63.242751-106.131322 266.285268-177.479131c0 0 159.771161-53.257054 294.461579-128.632428 0 0 154.928098-83.41386 151.333246-178.893772 0.066571-0.016643 7.522559-67.35353-79.918866-111.573527zM375.329086 883.817449s-101.671044 69.23417-120.826941 109.443245l46.100637 27.094526S377.792225 934.078793 412.742166 918.00182zM448.008321 841.927448l32.370303 31.621375s46.416851-39.393577 106.181251-51.842413l-32.137303-29.141594s-84.678715 27.394097-106.414251 49.362632zM625.770381 774.224418s78.787154-23.76596 103.185542-23.549603l21.286178 19.971395s-62.893252 12.864907-98.009621 32.786374zM781.613834 735.962554s39.29372-16.759329 81.183722-16.759329l18.107398 16.759329s-44.602782 7.47263-74.709661 23.299961z" fill="#1296db" p-id="7020"></path><path d="M898.113639 705.106748l23.765961 20.603823s36.447796-21.452607 61.578468-21.635678l-18.307112-15.061761s-42.805357-0.033286-67.037317 16.093616zM998.569757 673.23573l25.813028 19.971395s24.964244-16.526329 49.129632-19.971395l-18.573397-15.394617s-39.077363 5.675205-56.369263 15.394617zM1085.595111 643.811208l21.502536 18.107398s30.572877-21.735535 41.890001-21.502535l-19.239111-11.100767s-26.495384 4.543492-44.153426 14.495904zM1160.537771 615.967755l17.208686 13.364191 28.525809-19.022753-10.634768-9.286699-35.099727 14.945261zM1217.140034 588.573658s13.314263-6.340918 19.022754-12.23248l10.634768 6.107918s-7.47263 11.550124-19.971396 14.029905l-9.736055-6.790274zM1253.58783 560.713561l9.286699 7.023274s8.604343-3.162138 13.813548-19.022754l-9.503056-2.94578a32.986088 32.986088 0 0 1-13.597191 14.94526zM1273.05994 535.815889l11.550124 4.526849s6.573918-11.99948 4.29385-18.307112l-7.688987-1.664283s-3.17878 13.397478-8.154987 15.444546zM1285.05942 496.422312h7.023274s5.658562 6.340918 0 12.232479h-5.891562s2.496424-10.88441-1.131712-12.232479zM1280.299571 468.112859h7.70563s5.891562 7.921987 3.628137 12.681836h-8.321415s1.514497-10.185412-3.012352-12.681836zM1273.05994 452.268886h5.891562a14.146405 14.146405 0 0 1 3.328566 8.837342h-5.658562s0.282928-7.93863-3.561566-8.837342z" fill="#1296db" p-id="7021"></path><path d="M59.331686 65.772461V46.599922l53.772982-46.599922h79.269796v347.835132h-76.723443V65.772461zM272.40983 348.184631v-116.732804q0-40.774932 15.810687-58.88233 13.014692-14.778832 55.037837-25.729814l43.071642-11.167339q28.792095-7.639059 31.621376-11.982837a31.454947 31.454947 0 0 0 3.06228-14.978546V83.363932a17.225328 17.225328 0 0 0-4.593421-12.748407q-4.593421-4.843063-41.307502-4.843064h-113.420881V0.033286h166.428292Q502.613444 0.033286 502.613444 80.567937v39.243791q0 61.428683-70.848524 79.269796l-48.430633 12.232479q-18.107398 4.343778-27.011312 13.314264a9.736055 9.736055 0 0 0-2.296711 7.139774v50.727343h166.628007v65.755819zM559.898063 65.772461V45.135353L613.687687 0.033286h79.269796v347.835132h-76.723443V65.772461zM772.976206 348.184631v-116.732804q0-40.774932 15.794045-58.88233 12.99805-14.778832 55.054479-25.746457l43.088285-11.150696q28.792095-7.639059 31.621376-11.982837a31.454947 31.454947 0 0 0 3.06228-14.978546V83.363932a17.225328 17.225328 0 0 0-4.576778-12.731765q-4.626707-4.859706-41.324145-4.859706H762.241581V0.033286h166.428293q74.426733 0 74.426732 80.534651v39.243791q0 61.428683-70.848524 79.269796l-48.430633 12.232479q-18.090755 4.343778-27.011312 13.314264a9.736055 9.736055 0 0 0-2.29671 7.139774v50.727343h166.711221v65.755819zM1068.386426 282.129242h143.744116a15.993759 15.993759 0 0 0 12.99805-5.858276q6.890131-8.154986 6.873488-36.447796 0-29.82395-4.593421-35.166298a11.217267 11.217267 0 0 0-8.670914-3.328566h-110.092315L1068.386426 135.672344h150.367962a10.867768 10.867768 0 0 0 8.404629-3.06228q4.843063-5.608633 4.843063-28.542453 0-37.213366-19.888181-37.213366h-143.727473V1.048498h158.522949q39.510077 0 59.914185 16.309973 26.512027 21.153036 26.512027 81.300221 0 33.135873-11.982837 51.742556a59.914185 59.914185 0 0 1-20.387466 18.307112 59.7644 59.7644 0 0 1 20.387466 19.122611q11.982837 18.606683 11.982837 53.772982 0 68.2356-26.512027 89.971135-19.871538 16.309973-65.239891 16.309972h-153.114029z" fill="#1296db" p-id="7022"></path></svg>